<svg className='h-auto w-24 md:w-[10vw]' viewBox="0 0 158 28" fill="none" xmlns="http://www.w3.org/2000/svg">
            <path d="M9.62 22.26H9.256C8.476 22.2427 7.67 22.1473 6.838 21.974C6.02333 21.7833 5.26067 21.532 4.55 21.22C3.77 20.856 3.08533 20.4313 2.496 19.946C1.90667 19.4607 1.44733 18.932 1.118 18.36L4.888 16.176C5.00933 16.384 5.20867 16.592 5.486 16.8C5.78067 17.008 6.11867 17.1987 6.5 17.372C6.89867 17.5453 7.332 17.684 7.8 17.788C8.268 17.892 8.74467 17.944 9.23 17.944H9.282H9.36C9.75867 17.9787 10.2353 17.944 10.79 17.84C11.362 17.736 11.9253 17.554 12.48 17.294C13.4333 16.8607 13.9533 16.28 14.04 15.552C14.0573 15.344 14.04 15.188 13.988 15.084C13.936 14.9627 13.8667 14.8587 13.78 14.772C13.468 14.4253 12.9913 14.1653 12.35 13.992C11.5353 13.7493 10.5993 13.628 9.542 13.628C9.24733 13.628 8.82267 13.6107 8.268 13.576C7.73067 13.5413 7.14133 13.4547 6.5 13.316C4.888 12.9347 3.62267 12.2847 2.704 11.366C1.69867 10.326 1.248 9.04333 1.352 7.518V7.492C1.404 6.764 1.56867 6.07933 1.846 5.438C2.14067 4.79667 2.55667 4.23333 3.094 3.748C3.978 2.89867 5.11333 2.30067 6.5 1.954C7.384 1.72867 8.31133 1.616 9.282 1.616C10.27 1.616 11.232 1.73733 12.168 1.98C13.2427 2.24 14.17 2.62133 14.95 3.124C15.7473 3.62667 16.3713 4.20733 16.822 4.866L13.13 7.206C13.026 7.05 12.8093 6.868 12.48 6.66C12.1507 6.452 11.6913 6.27867 11.102 6.14C10.53 6.00133 9.932 5.932 9.308 5.932C8.684 5.91467 8.12067 5.97533 7.618 6.114C7.16733 6.218 6.812 6.348 6.552 6.504C6.30933 6.66 6.11867 6.82467 5.98 6.998C5.85867 7.154 5.78067 7.31 5.746 7.466C5.71133 7.60467 5.694 7.70867 5.694 7.778C5.694 7.96867 5.71133 8.116 5.746 8.22C5.798 8.30667 5.85 8.376 5.902 8.428C6.162 8.688 6.63 8.90467 7.306 9.078C7.982 9.234 8.72733 9.312 9.542 9.312C11.206 9.312 12.6707 9.53733 13.936 9.988C15.2187 10.4213 16.25 11.054 17.03 11.886C17.5327 12.4407 17.9053 13.0647 18.148 13.758C18.3907 14.434 18.4687 15.162 18.382 15.942C18.278 17.0687 17.888 18.0827 17.212 18.984C16.536 19.868 15.6087 20.596 14.43 21.168C13.702 21.5147 12.9133 21.7833 12.064 21.974C11.232 22.1647 10.4173 22.26 9.62 22.26ZM36.8184 1.902V6.322H30.8384V22H26.4184V6.322H20.4644V1.902H36.8184ZM56.0308 22H54.1068H50.6228L46.9308 16.722H44.6428V22H40.2228V1.902H47.6328C48.7768 1.902 49.8168 2.04933 50.7528 2.344C51.7061 2.62133 52.5468 3.03733 53.2748 3.592C53.6735 3.92133 54.0288 4.28533 54.3408 4.684C54.6701 5.06533 54.9388 5.48133 55.1468 5.932C55.5975 6.88533 55.8228 7.91667 55.8228 9.026C55.8228 10.0833 55.6321 11.0887 55.2508 12.042C54.8868 12.9607 54.3408 13.7753 53.6128 14.486C53.0408 15.058 52.4081 15.5087 51.7148 15.838L56.0308 22ZM44.6428 12.302H47.6328H47.6588C48.8895 12.3367 49.8428 12.016 50.5188 11.34C51.1081 10.7507 51.4028 9.97933 51.4028 9.026C51.4028 7.22333 50.1461 6.322 47.6328 6.322H44.6428V12.302ZM71.88 6.322H63.456V9.312H71.594V13.732H63.456V17.58H71.88V22H59.036V1.902H71.88V6.322Z" fill="white" />
            <path d="M80.5738 21.504C79.2423 22.3513 77.5 21.3948 77.5 19.8167V4.14334C77.5 2.56516 79.2423 1.60874 80.5738 2.45602L92.8885 10.2927C94.1235 11.0786 94.1235 12.8814 92.8885 13.6673L80.5738 21.504Z" fill="#474CFF" />
            <path d="M117.074 1.902H118.946L124.068 22H119.96H119.492L116.32 9.52L111.9 22H107.48L103.06 9.598L99.966 22H97.912H95.39L100.434 1.902H105.01L109.69 15.006L114.344 1.902H117.074ZM131.084 22H126.664V1.902H131.084V22ZM145.223 22.546C143.784 22.546 142.406 22.2687 141.089 21.714C139.806 21.1593 138.68 20.4053 137.709 19.452C136.756 18.4813 136.002 17.3547 135.447 16.072C134.892 14.7547 134.615 13.3767 134.615 11.938C134.615 10.534 134.892 9.156 135.447 7.804C135.724 7.18 136.045 6.59067 136.409 6.036C136.79 5.464 137.224 4.93533 137.709 4.45C138.212 3.94733 138.74 3.514 139.295 3.15C139.867 2.76867 140.465 2.43933 141.089 2.162C142.406 1.60733 143.784 1.33 145.223 1.33C146.627 1.33 148.005 1.60733 149.357 2.162C149.981 2.43933 150.57 2.76867 151.125 3.15C151.697 3.514 152.226 3.94733 152.711 4.45C153.214 4.93533 153.647 5.464 154.011 6.036C154.392 6.59067 154.722 7.18 154.999 7.804C155.554 9.156 155.831 10.534 155.831 11.938C155.831 13.3767 155.554 14.7547 154.999 16.072C154.722 16.696 154.392 17.294 154.011 17.866C153.647 18.4207 153.214 18.9493 152.711 19.452C152.226 19.9373 151.697 20.3707 151.125 20.752C150.57 21.116 149.981 21.4367 149.357 21.714C148.005 22.2687 146.627 22.546 145.223 22.546ZM145.223 5.75C144.374 5.75 143.568 5.91467 142.805 6.244C142.06 6.57333 141.41 7.01533 140.855 7.57C140.3 8.12467 139.858 8.78333 139.529 9.546C139.2 10.2913 139.035 11.0887 139.035 11.938C139.035 12.7873 139.2 13.5933 139.529 14.356C139.858 15.1013 140.3 15.7513 140.855 16.306C141.41 16.8607 142.06 17.3027 142.805 17.632C143.568 17.9613 144.374 18.126 145.223 18.126C146.072 18.126 146.87 17.9613 147.615 17.632C148.378 17.3027 149.036 16.8607 149.591 16.306C150.146 15.7513 150.588 15.1013 150.917 14.356C151.246 13.5933 151.411 12.7873 151.411 11.938C151.411 11.0887 151.246 10.2913 150.917 9.546C150.588 8.78333 150.146 8.12467 149.591 7.57C149.036 7.01533 148.378 6.57333 147.615 6.244C146.87 5.91467 146.072 5.75 145.223 5.75Z" fill="white" />
        </svg>